<?xml version="1.0" encoding="utf-8"?>
<!-- Generator: Adobe Illustrator 16.0.0, SVG Export Plug-In . SVG Version: 6.00 Build 0)  -->
<!DOCTYPE svg PUBLIC "-//W3C//DTD SVG 1.1//EN" "http://www.w3.org/Graphics/SVG/1.1/DTD/svg11.dtd">
<svg version="1.1" id="Layer_1" xmlns="http://www.w3.org/2000/svg" xmlns:xlink="http://www.w3.org/1999/xlink" x="0px" y="0px"
	 width="60px" height="60px" viewBox="0 0 60 60" enable-background="new 0 0 60 60" xml:space="preserve">
<g>
	<g>
		<path fill="#00A750" d="M10.517,8.917l0.963-0.472l0.478-0.854L7.153,2.904L7.15,5.349L10.517,8.917z"/>
		<path fill="#008747" d="M13.439,12.08L13.439,12.08L5.48,11.42v2.837l7.959,0.556V12.08z"/>
		<path fill="#B9C33E" d="M7.15,2.904h0.003l4.804,4.688l-0.478,0.854l-0.963,0.472L9.939,9.199L8.517,9.231L3.795,4.578l-3.28,1.64
			l5.036,4.967l7.985,0.685l2.151-5.608V6.218l-5.1-5.029L7.15,2.904z"/>
		<path fill="#E9D51F" d="M15.703,9.021l-0.016-2.76l-2.151,5.608l-0.079,0.211h-0.018v2.732L15.703,9.021z"/>
		<path fill="#FFFFFF" d="M13.457,12.08l0.079-0.211l-7.985-0.685L0.515,6.218l-0.218,0.11l0.01,0.018l5.162,5.071L5.48,11.42
			l7.959,0.659L13.457,12.08z"/>
		<path fill="#00A750" d="M0.307,6.346L0.299,8.77l5.181,5.487V11.42l-0.012-0.003L0.307,6.346z"/>
	</g>
</g>
</svg>
