<?xml version="1.0" encoding="utf-8"?>
<!-- Generator: Adobe Illustrator 16.0.0, SVG Export Plug-In . SVG Version: 6.00 Build 0)  -->
<!DOCTYPE svg PUBLIC "-//W3C//DTD SVG 1.1//EN" "http://www.w3.org/Graphics/SVG/1.1/DTD/svg11.dtd">
<svg version="1.1" id="Layer_1" xmlns="http://www.w3.org/2000/svg" xmlns:xlink="http://www.w3.org/1999/xlink" x="0px" y="0px"
	 width="1024px" height="768px" viewBox="0 0 1024 768" enable-background="new 0 0 1024 768" xml:space="preserve">
<g>
	<g>
		<path fill="#00A750" d="M636,433.234l52.734-25.842l26.129-46.729L451.854,104.043l-0.191,133.794L636,433.234z"/>
		<path fill="#008747" d="M796.017,606.413v-0.095l-435.711-36.047v155.249l435.711,30.421V606.413z"/>
		<path fill="#B9C33E" d="M451.663,104.043h0.191l263.009,256.621l-26.129,46.729L636,433.234l-31.66,15.448l-77.817,1.718
			L267.995,195.687L88.427,285.423L364.12,557.303l437.142,37.572l117.773-307.068v-2.384L639.909,10.111L451.663,104.043z"/>
		<path fill="#E9D51F" d="M919.894,438.86l-0.858-151.053L801.262,594.875l-4.291,11.538h-0.954v149.528L919.894,438.86z"/>
		<path fill="#FFFFFF" d="M796.971,606.413l4.291-11.538L364.12,557.303L88.427,285.423l-11.92,6.008l0.572,0.953l282.56,277.696
			l0.667,0.191l435.711,36.047L796.971,606.413z"/>
		<path fill="#00A750" d="M77.079,292.384L76.602,425.13l283.704,300.391V570.271l-0.667-0.191L77.079,292.384z"/>
	</g>
</g>
</svg>
